<?xml version="1.0" encoding="utf-8"?>
<!-- Generator: Adobe Illustrator 21.0.0, SVG Export Plug-In . SVG Version: 6.00 Build 0)  -->
<svg version="1.1" id="Layer_1" xmlns="http://www.w3.org/2000/svg" xmlns:xlink="http://www.w3.org/1999/xlink" x="0px" y="0px"
	 viewBox="0 0 68.5 25.3" style="enable-background:new 0 0 68.5 25.3;" xml:space="preserve">
<style type="text/css">
	.st0{fill:#7AD4C2;}
	.st1{font-family:'HelveticaNeue-Medium';}
	.st2{font-size:12px;}
</style>
<title>record_logo</title>
<path class="st0" d="M12.3,4.6c-4.2,0-7.7,3.4-7.7,7.7S8.1,20,12.3,20s7.7-3.4,7.7-7.7C20,8.1,16.6,4.6,12.3,4.6z M12.3,19.1
	c-3.7,0-6.7-3-6.7-6.7s3-6.7,6.7-6.7s6.7,3,6.7,6.7c0,0,0,0,0,0C19,16.1,16,19,12.3,19.1L12.3,19.1z"/>
<path class="st0" d="M12.3,6.1c-3.4,0-6.2,2.8-6.2,6.2s2.8,6.2,6.2,6.2s6.2-2.8,6.2-6.2c0,0,0,0,0,0C18.5,8.9,15.7,6.1,12.3,6.1z
	 M12.3,17.5c-2.9,0-5.2-2.3-5.2-5.2s2.3-5.2,5.2-5.2c2.9,0,5.2,2.3,5.2,5.2c0,0,0,0,0,0C17.5,15.2,15.2,17.5,12.3,17.5
	C12.3,17.5,12.3,17.5,12.3,17.5z"/>
<path class="st0" d="M12.3,3.2c-5.1,0-9.2,4.1-9.2,9.2s4.1,9.2,9.2,9.2s9.2-4.1,9.2-9.2S17.4,3.2,12.3,3.2L12.3,3.2z M12.3,20.5
	c-4.5,0-8.2-3.7-8.2-8.2c0-4.5,3.7-8.2,8.2-8.2s8.2,3.7,8.2,8.2C20.5,16.9,16.9,20.5,12.3,20.5L12.3,20.5z"/>
<path class="st0" d="M12.3,0C5.5,0,0,5.5,0,12.3c0,6.8,5.5,12.3,12.3,12.3c6.8,0,12.3-5.5,12.3-12.3C24.7,5.5,19.2,0,12.3,0
	C12.3,0,12.3,0,12.3,0z M12.3,23.5c-6.2,0-11.2-5-11.2-11.2s5-11.2,11.2-11.2s11.2,5,11.2,11.2C23.5,18.5,18.5,23.5,12.3,23.5z"/>
<path class="st0" d="M12.3,1.6C6.4,1.6,1.6,6.4,1.6,12.3S6.4,23,12.3,23S23,18.2,23,12.3C23,6.4,18.2,1.7,12.3,1.6z M12.3,22
	c-5.4,0-9.7-4.3-9.7-9.7S7,2.6,12.3,2.6S22,7,22,12.3l0,0C22,17.7,17.7,22,12.3,22z"/>
<path class="st0" d="M12.3,7.6c-2.6,0-4.7,2.1-4.7,4.7S9.7,17,12.3,17s4.7-2.1,4.7-4.7C17,9.7,14.9,7.6,12.3,7.6z M12.3,13.2
	c-0.5,0-0.9-0.4-0.9-0.9s0.4-0.9,0.9-0.9c0.5,0,0.9,0.4,0.9,0.9C13.2,12.8,12.8,13.2,12.3,13.2C12.3,13.2,12.3,13.2,12.3,13.2z"/>
<text transform="matrix(1 0 0 1 26.81 11.47)" class="st0 st1 st2">Reco</text>
<text transform="matrix(1 0 0 1 56.68 11.47)" class="st0 st1 st2">r</text>
<text transform="matrix(1 0 0 1 60.93 11.47)" class="st0 st1 st2">d</text>
<text transform="matrix(1 0 0 1 26.81 21.87)" class="st0 st1 st2">Reco</text>
<text transform="matrix(1 0 0 1 56.68 21.87)" class="st0 st1 st2">r</text>
<text transform="matrix(1 0 0 1 60.93 21.87)" class="st0 st1 st2">d</text>
</svg>
