<svg xmlns="http://www.w3.org/2000/svg" viewBox="0 0 68.5 25.32"><defs><style>.a{fill:#000100;}.b{fill:#040000;}.c{font-size:12px;fill:#060200;font-family:HelveticaNeue-Medium, Helvetica Neue;letter-spacing:0.02em;}.d{letter-spacing:0em;}.e{letter-spacing:0.02em;}</style></defs><title>record_logo</title><path class="a" d="M19.65,17.94a7.68,7.68,0,1,0,7.68,7.68A7.69,7.69,0,0,0,19.65,17.94Zm0,14.42a6.72,6.72,0,1,1,6.73-6.7A6.74,6.74,0,0,1,19.65,32.35Z" transform="translate(-7.33 -13.3)"/><path class="a" d="M19.65,19.42a6.2,6.2,0,1,0,6.2,6.2A6.21,6.21,0,0,0,19.65,19.42Zm0,11.42a5.22,5.22,0,1,1,5.22-5.22A5.21,5.21,0,0,1,19.65,30.84Z" transform="translate(-7.33 -13.3)"/><path class="a" d="M19.65,16.45a9.17,9.17,0,1,0,9.17,9.17A9.17,9.17,0,0,0,19.65,16.45Zm0,17.38a8.21,8.21,0,1,1,8.21-8.21A8.22,8.22,0,0,1,19.65,33.84Z" transform="translate(-7.33 -13.3)"/><path class="a" d="M19.65,13.3A12.32,12.32,0,1,0,32,25.62,12.32,12.32,0,0,0,19.65,13.3Zm0,23.53A11.21,11.21,0,1,1,30.86,25.62,11.23,11.23,0,0,1,19.65,36.83Z" transform="translate(-7.33 -13.3)"/><path class="a" d="M19.65,14.94A10.68,10.68,0,1,0,30.33,25.62,10.7,10.7,0,0,0,19.65,14.94Zm0,20.38a9.7,9.7,0,1,1,9.7-9.7A9.7,9.7,0,0,1,19.65,35.32Z" transform="translate(-7.33 -13.3)"/><path class="b" d="M19.65,20.93a4.69,4.69,0,1,0,4.69,4.69A4.7,4.7,0,0,0,19.65,20.93Zm0,5.54a.85.85,0,1,1,.85-.85A.84.84,0,0,1,19.65,26.47Z" transform="translate(-7.33 -13.3)"/><text class="c" transform="translate(26.81 11.47)">Reco<tspan class="d" x="29.87" y="0">r</tspan><tspan class="e" x="34.12" y="0">d</tspan><tspan x="0" y="10.4">Reco</tspan><tspan class="d" x="29.87" y="10.4">r</tspan><tspan class="e" x="34.12" y="10.4">d</tspan></text></svg>